# xmcd
#
# Track frame offsets: 
#        182
#        17572
#        40655
#        61745
#        83487
#        100225
#        121995
#        143537
#        160435
#        178270
#        196852
#        217412
#        235202
#        250997
#        265820
#        292635
#        310702
#
# Disc length: 4404 seconds
#
# Revision: 12
# Processed by: cddbd v1.5.2PL0 Copyright (c) Steve Scherf et al.
# Submitted via: ExactAudioCopyFreeDBPlugin 1.0
#
DISCID=e2113211
DTITLE=Marla Glen - The Best Of
DYEAR=1998
DGENRE=Blues
TTITLE0=The Cost Of Freedom
TTITLE1=Believer
TTITLE2=Personal
TTITLE3=Travel
TTITLE4=You Hurt Me
TTITLE5=Also Love You
TTITLE6=Love and Respect
TTITLE7=What About Our Kids
TTITLE8=Not Really Easy
TTITLE9=Promises
TTITLE10=Hot Love
TTITLE11=Our World
TTITLE12=Movin'
TTITLE13=It's A Man's Man's Man's World
TTITLE14=Ain't That A Shame (Acoustic Version)
TTITLE15=Not Really Easy (Acoustic Version)
TTITLE16=Center Of A Star (Acoustic Version)
EXTD=
EXTT0=
EXTT1=
EXTT2=
EXTT3=
EXTT4=
EXTT5=
EXTT6=
EXTT7=
EXTT8=
EXTT9=
EXTT10=
EXTT11=
EXTT12=
EXTT13=
EXTT14=
EXTT15=
EXTT16=
PLAYORDER=
